<svg xmlns="http://www.w3.org/2000/svg" xmlns:xlink="http://www.w3.org/1999/xlink" width="500" zoomAndPan="magnify" viewBox="0 0 375 374.999991" height="500" preserveAspectRatio="xMidYMid meet" version="1.0"><defs><clipPath id="46a8e18e54"><path d="M 28.195312 1.871094 L 346.945312 1.871094 L 346.945312 373.121094 L 28.195312 373.121094 Z M 28.195312 1.871094 " clip-rule="nonzero"/></clipPath></defs><g clip-path="url(#46a8e18e54)"><path fill="#ffffff" d="M 98.019531 67.445312 L 133.15625 67.445312 L 133.15625 224.375 L 187.570312 192.976562 L 241.984375 224.375 L 241.984375 67.445312 L 277.121094 67.445312 L 277.121094 373.121094 L 241.984375 373.121094 L 241.984375 264.929688 L 187.570312 233.53125 L 133.15625 264.929688 L 133.15625 373.121094 L 98.019531 373.121094 Z M 170.003906 321.949219 L 205.140625 321.949219 L 205.140625 373.121094 L 170.003906 373.121094 Z M 311.203125 181.910156 L 346.339844 181.910156 L 346.339844 373.121094 L 311.203125 373.121094 Z M 28.804688 181.910156 L 63.941406 181.910156 L 63.941406 373.121094 L 28.804688 373.121094 Z M 170.003906 1.871094 L 205.140625 1.871094 L 205.140625 162.136719 L 170.003906 162.136719 Z M 170.003906 1.871094 " fill-opacity="1" fill-rule="evenodd"/></g></svg>