<?xml version="1.0" standalone="no"?>
<!DOCTYPE svg PUBLIC "-//W3C//DTD SVG 20010904//EN"
 "http://www.w3.org/TR/2001/REC-SVG-20010904/DTD/svg10.dtd">
<svg version="1.0" xmlns="http://www.w3.org/2000/svg"
 width="1563.000000pt" height="1563.000000pt" viewBox="0 0 1563.000000 1563.000000"
 preserveAspectRatio="xMidYMid meet">
<metadata>
Created by potrace 1.14, written by Peter Selinger 2001-2017
</metadata>
<g transform="translate(0.000000,1563.000000) scale(0.100000,-0.100000)"
fill="#000000" stroke="none">
<path d="M2 11868 c1 -2070 3 -3740 5 -3713 39 675 117 1174 269 1725 350
1266 984 2382 1892 3335 1189 1247 2767 2069 4457 2324 311 47 493 64 875 84
30 2 -1645 4 -3722 5 l-3778 2 2 -3762z"/>
<path d="M8130 15623 c381 -20 564 -37 875 -84 688 -104 1352 -299 2010 -594
192 -85 586 -286 592 -302 2 -6 -48 -181 -112 -390 -64 -208 -118 -386 -121
-395 -4 -14 -18 -9 -92 34 -719 415 -1603 722 -2432 843 -643 94 -1344 99
-1965 15 -1182 -159 -2298 -615 -3250 -1327 -1518 -1135 -2511 -2818 -2759
-4676 -51 -382 -64 -629 -55 -1057 11 -484 49 -844 135 -1265 220 -1073 675
-2057 1353 -2925 801 -1025 1897 -1821 3121 -2265 767 -278 1550 -415 2380
-415 1089 0 2118 238 3085 715 676 333 1267 753 1809 1285 387 380 653 701
941 1135 608 916 981 1921 1114 3000 40 321 46 433 46 845 0 564 -36 934 -139
1435 -260 1264 -885 2459 -1768 3382 l-98 101 -65 -201 c-36 -111 -613 -1898
-1282 -3972 -669 -2073 -1221 -3776 -1226 -3782 -7 -10 -112 -13 -464 -13
l-454 0 -13 33 c-11 25 -1320 3851 -1448 4230 -17 49 -32 87 -34 85 -2 -2
-332 -967 -735 -2143 -402 -1177 -737 -2155 -744 -2172 l-14 -33 -454 0 -455
0 -56 162 c-634 1822 -2053 5935 -2049 5941 2 4 260 7 573 7 l568 0 21 -62
c11 -35 336 -1044 721 -2243 386 -1199 703 -2181 704 -2182 2 -2 989 2979
1348 4075 l139 422 452 0 452 0 740 -2245 c407 -1235 742 -2245 745 -2245 3 0
552 1777 1220 3950 667 2173 1215 3950 1217 3950 7 0 260 -183 377 -274 761
-588 1416 -1319 1908 -2131 696 -1148 1073 -2396 1131 -3745 2 -36 4 1637 5
3718 l2 3782 -3777 -2 c-2078 -1 -3753 -3 -3723 -5z"/>
<path d="M1 3778 l-1 -3778 3758 2 c2066 0 3692 4 3612 9 -871 45 -1763 252
-2600 604 -1820 764 -3311 2235 -4110 4055 -386 878 -597 1771 -649 2735 -4
83 -9 -1550 -10 -3627z"/>
<path d="M15617 7371 c-22 -490 -123 -1113 -267 -1636 -54 -198 -182 -579
-263 -785 -580 -1479 -1629 -2773 -2962 -3657 -1091 -723 -2361 -1162 -3665
-1268 -107 -8 -229 -17 -270 -18 -41 -2 1616 -4 3683 -5 l3757 -2 0 3760 c0
2068 -2 3760 -3 3760 -2 0 -7 -67 -10 -149z"/>
</g>
</svg>
